<svg xmlns="http://www.w3.org/2000/svg" viewBox="0 0 200 240">
  <style>
    .f1{animation:sh1 8s linear infinite}.f2{animation:sh2 8s linear infinite}.f3{animation:sh3 8s linear infinite}.f4{animation:sh4 8s linear infinite}.f5{animation:sh5 8s linear infinite}.f6{animation:sh6 8s linear infinite}.f7{animation:sh7 8s linear infinite}.f8{animation:sh8 8s linear infinite}
    @keyframes sh1{0%,10.2%{opacity:1}12.5%,100%{opacity:0}}
    @keyframes sh2{0%,12.5%{opacity:0}14.8%,22.7%{opacity:1}25%,100%{opacity:0}}
    @keyframes sh3{0%,25%{opacity:0}27.3%,35.2%{opacity:1}37.5%,100%{opacity:0}}
    @keyframes sh4{0%,37.5%{opacity:0}39.8%,47.7%{opacity:1}50%,100%{opacity:0}}
    @keyframes sh5{0%,50%{opacity:0}52.3%,60.2%{opacity:1}62.5%,100%{opacity:0}}
    @keyframes sh6{0%,62.5%{opacity:0}64.8%,72.7%{opacity:1}75%,100%{opacity:0}}
    @keyframes sh7{0%,75%{opacity:0}77.3%,85.2%{opacity:1}87.5%,100%{opacity:0}}
    @keyframes sh8{0%,87.5%{opacity:0}89.8%,97.7%{opacity:1}100%{opacity:0}}
  </style>
  <rect width="200" height="240" fill="#111827" rx="12"/>
  <!-- Bar -->
  <line x1="30" y1="22" x2="170" y2="22" stroke="#475569" stroke-width="6" stroke-linecap="round"/>
  <line x1="30" y1="14" x2="30" y2="30" stroke="#475569" stroke-width="4" stroke-linecap="round"/>
  <line x1="170" y1="14" x2="170" y2="30" stroke="#475569" stroke-width="4" stroke-linecap="round"/>
  <text x="100" y="237" text-anchor="middle" font-family="ui-sans-serif,system-ui,sans-serif" font-size="8" font-weight="700" fill="#475569" letter-spacing="1">BAR KIP SWING (BAMBOLEO)</text>
  <!-- Frame 1: Hollow (body swept forward, heels ahead) -->
  <g class="f1">
    <circle cx="100" cy="56" r="12" fill="#94a3b8"/>
    <line x1="90" y1="47" x2="76" y2="22"/>
    <line x1="110" y1="47" x2="124" y2="22"/>
    <line x1="90" y1="47" x2="110" y2="47"/>
    <line x1="100" y1="68" x2="112" y2="126"/>
    <line x1="112" y1="126" x2="130" y2="168"/>
    <line x1="130" y1="168" x2="146" y2="200"/>
    <line x1="112" y1="126" x2="124" y2="170"/>
    <line x1="124" y1="170" x2="138" y2="204"/>
  </g>

  <g class="f2">
    <circle cx="100" cy="56" r="12" fill="#94a3b8"/>
    <line x1="89.5" y1="47" x2="76" y2="22"/>
    <line x1="110.5" y1="47" x2="124" y2="22"/>
    <line x1="89.5" y1="47" x2="110.5" y2="47"/>
    <line x1="100" y1="68" x2="109" y2="126.5"/>
    <line x1="107.8" y1="126.5" x2="120" y2="171"/>
    <line x1="120" y1="171" x2="131.5" y2="205.5"/>
    <line x1="110.3" y1="126.5" x2="120.5" y2="172.5"/>
    <line x1="120.5" y1="172.5" x2="131.5" y2="208.5"/>
  </g>

  <g class="f3">
    <circle cx="100" cy="56" r="12" fill="#94a3b8"/>
    <line x1="89" y1="47" x2="76" y2="22"/>
    <line x1="111" y1="47" x2="124" y2="22"/>
    <line x1="89" y1="47" x2="111" y2="47"/>
    <line x1="100" y1="68" x2="106" y2="127"/>
    <line x1="103.5" y1="127" x2="110" y2="174"/>
    <line x1="110" y1="174" x2="117" y2="211"/>
    <line x1="108.5" y1="127" x2="117" y2="175"/>
    <line x1="117" y1="175" x2="125" y2="213"/>
  </g>

  <g class="f4">
    <circle cx="100" cy="56" r="12" fill="#94a3b8"/>
    <line x1="88.5" y1="47" x2="76" y2="22"/>
    <line x1="111.5" y1="47" x2="124" y2="22"/>
    <line x1="88.5" y1="47" x2="111.5" y2="47"/>
    <line x1="100" y1="68" x2="103" y2="127.5"/>
    <line x1="99.3" y1="127.5" x2="100" y2="177"/>
    <line x1="100" y1="177" x2="102.5" y2="216.5"/>
    <line x1="106.8" y1="127.5" x2="113.5" y2="177.5"/>
    <line x1="113.5" y1="177.5" x2="118.5" y2="217.5"/>
  </g>

  <g class="f5">
    <circle cx="100" cy="56" r="12" fill="#94a3b8"/>
    <line x1="88" y1="47" x2="76" y2="22"/>
    <line x1="112" y1="47" x2="124" y2="22"/>
    <line x1="88" y1="47" x2="112" y2="47"/>
    <line x1="100" y1="68" x2="100" y2="128"/>
    <line x1="95" y1="128" x2="90" y2="180"/>
    <line x1="90" y1="180" x2="88" y2="222"/>
    <line x1="105" y1="128" x2="110" y2="180"/>
    <line x1="110" y1="180" x2="112" y2="222"/>
  </g>

  <g class="f6">
    <circle cx="100" cy="56" r="12" fill="#94a3b8"/>
    <line x1="88.7" y1="47" x2="76" y2="22"/>
    <line x1="111.3" y1="47" x2="124" y2="22"/>
    <line x1="88.7" y1="47" x2="111.3" y2="47"/>
    <line x1="100" y1="68" x2="96" y2="127.3"/>
    <line x1="92.7" y1="127.3" x2="83.3" y2="176"/>
    <line x1="83.3" y1="176" x2="76.7" y2="214.7"/>
    <line x1="99.3" y1="127.3" x2="98.7" y2="176.7"/>
    <line x1="98.7" y1="176.7" x2="95.3" y2="216"/>
  </g>

  <g class="f7">
    <circle cx="100" cy="56" r="12" fill="#94a3b8"/>
    <line x1="89.3" y1="47" x2="76" y2="22"/>
    <line x1="110.7" y1="47" x2="124" y2="22"/>
    <line x1="89.3" y1="47" x2="110.7" y2="47"/>
    <line x1="100" y1="68" x2="92" y2="126.7"/>
    <line x1="90.3" y1="126.7" x2="76.7" y2="172"/>
    <line x1="76.7" y1="172" x2="65.3" y2="207.3"/>
    <line x1="93.7" y1="126.7" x2="87.3" y2="173.3"/>
    <line x1="87.3" y1="173.3" x2="78.7" y2="210"/>
  </g>

  <g class="f8">
    <circle cx="100" cy="56" r="12" fill="#94a3b8"/>
    <line x1="90" y1="47" x2="76" y2="22"/>
    <line x1="110" y1="47" x2="124" y2="22"/>
    <line x1="90" y1="47" x2="110" y2="47"/>
    <line x1="100" y1="68" x2="88" y2="126"/>
    <line x1="88" y1="126" x2="70" y2="168"/>
    <line x1="70" y1="168" x2="54" y2="200"/>
    <line x1="88" y1="126" x2="76" y2="170"/>
    <line x1="76" y1="170" x2="62" y2="204"/>
  </g>
    <circle cx="76" cy="22" r="5" fill="#64748b"/>
    <circle cx="124" cy="22" r="5" fill="#64748b"/>
  </g>
</svg>
