<svg xmlns="http://www.w3.org/2000/svg" viewBox="0 0 200 230">
  <style>
    .f1{animation:sh1 4s linear infinite}.f2{animation:sh2 4s linear infinite}.f3{animation:sh3 4s linear infinite}
    @keyframes sh1{0%,27%{opacity:1}33%,90%{opacity:0}100%{opacity:1}}
    @keyframes sh2{0%,33%{opacity:0}40%,60%{opacity:1}66%,100%{opacity:0}}
    @keyframes sh3{0%,66%{opacity:0}72%,93%{opacity:1}100%{opacity:0}}
  </style>
  <rect width="200" height="230" fill="#111827" rx="12"/>
  <line x1="30" y1="210" x2="170" y2="210" stroke="#374151" stroke-width="3" stroke-linecap="round"/>
  <text x="100" y="226" text-anchor="middle" font-family="ui-sans-serif,system-ui,sans-serif" font-size="10" font-weight="700" fill="#475569" letter-spacing="1">DEEP SQUAT HOLD</text>
  <g class="f1">
    <circle cx="100" cy="26" r="14" fill="#94a3b8"/>
    <g stroke="#94a3b8" stroke-width="5" stroke-linecap="round" stroke-linejoin="round" fill="none">
      <path d="M100 40 L100 108"/>
      <path d="M78 52 L122 52"/>
      <path d="M78 52 L74 100"/>
      <path d="M122 52 L126 100"/>
      <path d="M95 108 L93 162 L93 205"/>
      <path d="M105 108 L107 162 L107 205"/>
      <path d="M78 205 L106 205"/>
      <path d="M94 205 L122 205"/>
    </g>
  </g>
  <g class="f2">
    <circle cx="100" cy="62" r="14" fill="#94a3b8"/>
    <g stroke="#94a3b8" stroke-width="5" stroke-linecap="round" stroke-linejoin="round" fill="none">
      <path d="M100 76 L97 134"/>
      <path d="M93 134 L70 166 L74 205"/>
      <path d="M101 134 L130 166 L126 205"/>
      <path d="M100 84 L86 112 L100 124"/>
      <path d="M100 84 L114 112 L100 124"/>
      <path d="M58 205 L86 205"/>
      <path d="M114 205 L142 205"/>
    </g>
    <circle cx="70" cy="166" r="5" fill="#64748b"/>
    <circle cx="130" cy="166" r="5" fill="#64748b"/>
  </g>
  <g class="f3">
    <circle cx="100" cy="94" r="14" fill="#94a3b8"/>
    <g stroke="#94a3b8" stroke-width="5" stroke-linecap="round" stroke-linejoin="round" fill="none">
      <path d="M100 108 L98 156"/>
      <path d="M92 156 L66 172 L70 205"/>
      <path d="M104 156 L134 172 L130 205"/>
      <path d="M100 116 L84 140 L100 152"/>
      <path d="M100 116 L116 140 L100 152"/>
      <path d="M54 205 L82 205"/>
      <path d="M118 205 L146 205"/>
    </g>
    <circle cx="66" cy="172" r="5" fill="#64748b"/>
    <circle cx="134" cy="172" r="5" fill="#64748b"/>
  </g>
</svg>
