<svg xmlns="http://www.w3.org/2000/svg" viewBox="0 0 200 230">
<rect width="200" height="230" fill="#111827" rx="12"/>
<style>
    .f1{animation:sh1 8s linear infinite}.f2{animation:sh2 8s linear infinite}.f3{animation:sh3 8s linear infinite}.f4{animation:sh4 8s linear infinite}.f5{animation:sh5 8s linear infinite}.f6{animation:sh6 8s linear infinite}.f7{animation:sh7 8s linear infinite}.f8{animation:sh8 8s linear infinite}
    @keyframes sh1{0%,10.2%{opacity:1}12.5%,100%{opacity:0}}
    @keyframes sh2{0%,12.5%{opacity:0}14.8%,22.7%{opacity:1}25%,100%{opacity:0}}
    @keyframes sh3{0%,25%{opacity:0}27.3%,35.2%{opacity:1}37.5%,100%{opacity:0}}
    @keyframes sh4{0%,37.5%{opacity:0}39.8%,47.7%{opacity:1}50%,100%{opacity:0}}
    @keyframes sh5{0%,50%{opacity:0}52.3%,60.2%{opacity:1}62.5%,100%{opacity:0}}
    @keyframes sh6{0%,62.5%{opacity:0}64.8%,72.7%{opacity:1}75%,100%{opacity:0}}
    @keyframes sh7{0%,75%{opacity:0}77.3%,85.2%{opacity:1}87.5%,100%{opacity:0}}
    @keyframes sh8{0%,87.5%{opacity:0}89.8%,97.7%{opacity:1}100%{opacity:0}}
  </style>
<!-- F1: Half kneeling neutral, hands at chest -->
<g class="f1">
    <circle cx="97" cy="36" r="13" fill="#94a3b8"/>
    <line x1="97" y1="49" x2="97" y2="105" stroke="#94a3b8" stroke-width="4" stroke-linecap="round"/>
    <line x1="97" y1="59" x2="76" y2="77" stroke="#94a3b8" stroke-width="4" stroke-linecap="round"/>
    <line x1="76" y1="77" x2="72" y2="95" stroke="#94a3b8" stroke-width="4" stroke-linecap="round"/>
    <line x1="97" y1="59" x2="118" y2="77" stroke="#94a3b8" stroke-width="4" stroke-linecap="round"/>
    <line x1="118" y1="77" x2="122" y2="95" stroke="#94a3b8" stroke-width="4" stroke-linecap="round"/>
    <line x1="97" y1="105" x2="80" y2="158" stroke="#94a3b8" stroke-width="4" stroke-linecap="round"/>
    <line x1="80" y1="158" x2="76" y2="205" stroke="#94a3b8" stroke-width="4" stroke-linecap="round"/>
    <line x1="97" y1="105" x2="114" y2="153" stroke="#94a3b8" stroke-width="4" stroke-linecap="round"/>
    <line x1="114" y1="153" x2="114" y2="205" stroke="#94a3b8" stroke-width="4" stroke-linecap="round"/>
    <circle cx="80" cy="158" r="5" fill="#64748b"/>
    <circle cx="114" cy="153" r="5" fill="#64748b"/>
  </g>

  <g class="f2">
    <circle cx="97" cy="36" r="13" fill="#94a3b8"/>
    <line x1="97" y1="49" x2="97" y2="105" stroke="#94a3b8" stroke-width="4" stroke-linecap="round"/>
    <line x1="97" y1="59.8" x2="89" y2="72" stroke="#94a3b8" stroke-width="4" stroke-linecap="round"/>
    <line x1="89" y1="72" x2="91" y2="84.5" stroke="#94a3b8" stroke-width="4" stroke-linecap="round"/>
    <line x1="97" y1="59.8" x2="121.5" y2="75.3" stroke="#94a3b8" stroke-width="4" stroke-linecap="round"/>
    <line x1="121.5" y1="75.3" x2="129" y2="88.3" stroke="#94a3b8" stroke-width="4" stroke-linecap="round"/>
    <line x1="97" y1="105" x2="80" y2="158" stroke="#94a3b8" stroke-width="4" stroke-linecap="round"/>
    <line x1="80" y1="158" x2="76" y2="205" stroke="#94a3b8" stroke-width="4" stroke-linecap="round"/>
    <line x1="97" y1="105" x2="114" y2="153" stroke="#94a3b8" stroke-width="4" stroke-linecap="round"/>
    <line x1="114" y1="153" x2="114" y2="205" stroke="#94a3b8" stroke-width="4" stroke-linecap="round"/>
    <circle cx="80" cy="158" r="5" fill="#64748b"/>
    <circle cx="114" cy="153" r="5" fill="#64748b"/>
  </g>

  <g class="f3">
    <circle cx="97" cy="36" r="13" fill="#94a3b8"/>
    <line x1="97" y1="49" x2="97" y2="105" stroke="#94a3b8" stroke-width="4" stroke-linecap="round"/>
    <line x1="97" y1="60.5" x2="102" y2="67" stroke="#94a3b8" stroke-width="4" stroke-linecap="round"/>
    <line x1="102" y1="67" x2="110" y2="74" stroke="#94a3b8" stroke-width="4" stroke-linecap="round"/>
    <line x1="97" y1="60.5" x2="125" y2="73.5" stroke="#94a3b8" stroke-width="4" stroke-linecap="round"/>
    <line x1="125" y1="73.5" x2="136" y2="81.5" stroke="#94a3b8" stroke-width="4" stroke-linecap="round"/>
    <line x1="97" y1="105" x2="80" y2="158" stroke="#94a3b8" stroke-width="4" stroke-linecap="round"/>
    <line x1="80" y1="158" x2="76" y2="205" stroke="#94a3b8" stroke-width="4" stroke-linecap="round"/>
    <line x1="97" y1="105" x2="114" y2="153" stroke="#94a3b8" stroke-width="4" stroke-linecap="round"/>
    <line x1="114" y1="153" x2="114" y2="205" stroke="#94a3b8" stroke-width="4" stroke-linecap="round"/>
    <circle cx="80" cy="158" r="5" fill="#64748b"/>
    <circle cx="114" cy="153" r="5" fill="#64748b"/>
  </g>

  <g class="f4">
    <circle cx="97" cy="36" r="13" fill="#94a3b8"/>
    <line x1="97" y1="49" x2="97" y2="105" stroke="#94a3b8" stroke-width="4" stroke-linecap="round"/>
    <line x1="97" y1="61.3" x2="115" y2="62" stroke="#94a3b8" stroke-width="4" stroke-linecap="round"/>
    <line x1="115" y1="62" x2="129" y2="63.5" stroke="#94a3b8" stroke-width="4" stroke-linecap="round"/>
    <line x1="97" y1="61.3" x2="128.5" y2="71.8" stroke="#94a3b8" stroke-width="4" stroke-linecap="round"/>
    <line x1="128.5" y1="71.8" x2="143" y2="74.8" stroke="#94a3b8" stroke-width="4" stroke-linecap="round"/>
    <line x1="97" y1="105" x2="80" y2="158" stroke="#94a3b8" stroke-width="4" stroke-linecap="round"/>
    <line x1="80" y1="158" x2="76" y2="205" stroke="#94a3b8" stroke-width="4" stroke-linecap="round"/>
    <line x1="97" y1="105" x2="114" y2="153" stroke="#94a3b8" stroke-width="4" stroke-linecap="round"/>
    <line x1="114" y1="153" x2="114" y2="205" stroke="#94a3b8" stroke-width="4" stroke-linecap="round"/>
    <circle cx="80" cy="158" r="5" fill="#64748b"/>
    <circle cx="114" cy="153" r="5" fill="#64748b"/>
  </g>

  <g class="f5">
    <circle cx="97" cy="36" r="13" fill="#94a3b8"/>
    <line x1="97" y1="49" x2="97" y2="105" stroke="#94a3b8" stroke-width="4" stroke-linecap="round"/>
    <line x1="97" y1="62" x2="128" y2="57" stroke="#94a3b8" stroke-width="4" stroke-linecap="round"/>
    <line x1="128" y1="57" x2="148" y2="53" stroke="#94a3b8" stroke-width="4" stroke-linecap="round"/>
    <line x1="97" y1="62" x2="132" y2="70" stroke="#94a3b8" stroke-width="4" stroke-linecap="round"/>
    <line x1="132" y1="70" x2="150" y2="68" stroke="#94a3b8" stroke-width="4" stroke-linecap="round"/>
    <line x1="97" y1="105" x2="80" y2="158" stroke="#94a3b8" stroke-width="4" stroke-linecap="round"/>
    <line x1="80" y1="158" x2="76" y2="205" stroke="#94a3b8" stroke-width="4" stroke-linecap="round"/>
    <line x1="97" y1="105" x2="114" y2="153" stroke="#94a3b8" stroke-width="4" stroke-linecap="round"/>
    <line x1="114" y1="153" x2="114" y2="205" stroke="#94a3b8" stroke-width="4" stroke-linecap="round"/>
    <circle cx="80" cy="158" r="5" fill="#64748b"/>
    <circle cx="114" cy="153" r="5" fill="#64748b"/>
  </g>

  <g class="f6">
    <circle cx="97" cy="36" r="13" fill="#94a3b8"/>
    <line x1="97" y1="49" x2="97" y2="105" stroke="#94a3b8" stroke-width="4" stroke-linecap="round"/>
    <line x1="97" y1="62" x2="107.3" y2="57" stroke="#94a3b8" stroke-width="4" stroke-linecap="round"/>
    <line x1="107.3" y1="57" x2="114" y2="53" stroke="#94a3b8" stroke-width="4" stroke-linecap="round"/>
    <line x1="97" y1="62" x2="108.7" y2="70" stroke="#94a3b8" stroke-width="4" stroke-linecap="round"/>
    <line x1="108.7" y1="70" x2="114.7" y2="68" stroke="#94a3b8" stroke-width="4" stroke-linecap="round"/>
    <line x1="97" y1="105" x2="80" y2="158" stroke="#94a3b8" stroke-width="4" stroke-linecap="round"/>
    <line x1="80" y1="158" x2="76" y2="205" stroke="#94a3b8" stroke-width="4" stroke-linecap="round"/>
    <line x1="97" y1="105" x2="114" y2="153" stroke="#94a3b8" stroke-width="4" stroke-linecap="round"/>
    <line x1="114" y1="153" x2="114" y2="205" stroke="#94a3b8" stroke-width="4" stroke-linecap="round"/>
    <circle cx="80" cy="158" r="5" fill="#64748b"/>
    <circle cx="114" cy="153" r="5" fill="#64748b"/>
  </g>

  <g class="f7">
    <circle cx="97" cy="36" r="13" fill="#94a3b8"/>
    <line x1="97" y1="49" x2="97" y2="105" stroke="#94a3b8" stroke-width="4" stroke-linecap="round"/>
    <line x1="97" y1="62" x2="86.7" y2="57" stroke="#94a3b8" stroke-width="4" stroke-linecap="round"/>
    <line x1="86.7" y1="57" x2="80" y2="53" stroke="#94a3b8" stroke-width="4" stroke-linecap="round"/>
    <line x1="97" y1="62" x2="85.3" y2="70" stroke="#94a3b8" stroke-width="4" stroke-linecap="round"/>
    <line x1="85.3" y1="70" x2="79.3" y2="68" stroke="#94a3b8" stroke-width="4" stroke-linecap="round"/>
    <line x1="97" y1="105" x2="80" y2="158" stroke="#94a3b8" stroke-width="4" stroke-linecap="round"/>
    <line x1="80" y1="158" x2="76" y2="205" stroke="#94a3b8" stroke-width="4" stroke-linecap="round"/>
    <line x1="97" y1="105" x2="114" y2="153" stroke="#94a3b8" stroke-width="4" stroke-linecap="round"/>
    <line x1="114" y1="153" x2="114" y2="205" stroke="#94a3b8" stroke-width="4" stroke-linecap="round"/>
    <circle cx="80" cy="158" r="5" fill="#64748b"/>
    <circle cx="114" cy="153" r="5" fill="#64748b"/>
  </g>

  <g class="f8">
    <circle cx="97" cy="36" r="13" fill="#94a3b8"/>
    <line x1="97" y1="49" x2="97" y2="105" stroke="#94a3b8" stroke-width="4" stroke-linecap="round"/>
    <line x1="97" y1="62" x2="66" y2="57" stroke="#94a3b8" stroke-width="4" stroke-linecap="round"/>
    <line x1="66" y1="57" x2="46" y2="53" stroke="#94a3b8" stroke-width="4" stroke-linecap="round"/>
    <line x1="97" y1="62" x2="62" y2="70" stroke="#94a3b8" stroke-width="4" stroke-linecap="round"/>
    <line x1="62" y1="70" x2="44" y2="68" stroke="#94a3b8" stroke-width="4" stroke-linecap="round"/>
    <line x1="97" y1="105" x2="80" y2="158" stroke="#94a3b8" stroke-width="4" stroke-linecap="round"/>
    <line x1="80" y1="158" x2="76" y2="205" stroke="#94a3b8" stroke-width="4" stroke-linecap="round"/>
    <line x1="97" y1="105" x2="114" y2="153" stroke="#94a3b8" stroke-width="4" stroke-linecap="round"/>
    <line x1="114" y1="153" x2="114" y2="205" stroke="#94a3b8" stroke-width="4" stroke-linecap="round"/>
    <circle cx="80" cy="158" r="5" fill="#64748b"/>
    <circle cx="114" cy="153" r="5" fill="#64748b"/>
  </g>
<line x1="30" y1="210" x2="170" y2="210" stroke="#374151" stroke-width="3" stroke-linecap="round"/>
<text x="100" y="225" text-anchor="middle" font-family="monospace" font-size="9" fill="#475569">THORACIC ROTATION</text>
</svg>
