<svg xmlns="http://www.w3.org/2000/svg" viewBox="0 0 200 230">
<defs><style>
    .f1{animation:sh1 8s linear infinite}.f2{animation:sh2 8s linear infinite}.f3{animation:sh3 8s linear infinite}.f4{animation:sh4 8s linear infinite}.f5{animation:sh5 8s linear infinite}.f6{animation:sh6 8s linear infinite}.f7{animation:sh7 8s linear infinite}.f8{animation:sh8 8s linear infinite}
    @keyframes sh1{0%,10.2%{opacity:1}12.5%,100%{opacity:0}}
    @keyframes sh2{0%,12.5%{opacity:0}14.8%,22.7%{opacity:1}25%,100%{opacity:0}}
    @keyframes sh3{0%,25%{opacity:0}27.3%,35.2%{opacity:1}37.5%,100%{opacity:0}}
    @keyframes sh4{0%,37.5%{opacity:0}39.8%,47.7%{opacity:1}50%,100%{opacity:0}}
    @keyframes sh5{0%,50%{opacity:0}52.3%,60.2%{opacity:1}62.5%,100%{opacity:0}}
    @keyframes sh6{0%,62.5%{opacity:0}64.8%,72.7%{opacity:1}75%,100%{opacity:0}}
    @keyframes sh7{0%,75%{opacity:0}77.3%,85.2%{opacity:1}87.5%,100%{opacity:0}}
    @keyframes sh8{0%,87.5%{opacity:0}89.8%,97.7%{opacity:1}100%{opacity:0}}
  </style></defs>
<rect width="200" height="230" fill="#111827" rx="12"/>
<line x1="20" y1="210" x2="180" y2="210" stroke="#374151" stroke-width="3" stroke-linecap="round"/>
<text x="100" y="225" text-anchor="middle" font-family="sans-serif" font-size="9" fill="#475569">SANDBAG WALKING LUNGES</text>

<!-- F1: Standing step start (front foot forward, back foot behind) -->
<g class="f1" stroke="#94a3b8" stroke-width="3" stroke-linecap="round" fill="none">
    <circle cx="80" cy="40" r="12" fill="#94a3b8" stroke="none"/>
    <line x1="80" y1="52" x2="80" y2="120"/>
    <rect x="60" y="38" width="40" height="14" rx="4" stroke="#64748b" fill="none"/>
    <line x1="80" y1="60" x2="62" y2="50"/>
    <line x1="80" y1="60" x2="98" y2="50"/>
    <line x1="80" y1="120" x2="110" y2="155"/>
    <line x1="110" y1="155" x2="115" y2="200"/>
    <line x1="107" y1="200" x2="125" y2="200"/>
    <line x1="80" y1="120" x2="60" y2="160"/>
    <line x1="60" y1="160" x2="55" y2="200"/>
    <line x1="47" y1="200" x2="65" y2="200"/>
    <circle cx="110" cy="155" r="4" fill="#64748b" stroke="none"/>
    <circle cx="60" cy="160" r="4" fill="#64748b" stroke="none"/>
  </g>

  <g class="f2" stroke="#94a3b8" stroke-width="3" stroke-linecap="round" fill="none">
    <circle cx="82.5" cy="45" r="12" fill="#94a3b8" stroke="none"/>
    <line x1="82.5" y1="57" x2="82.5" y2="125"/>
    <rect x="62.5" y="43" width="40" height="14" rx="4" stroke="#64748b" fill="none"/>
    <line x1="82.5" y1="65" x2="64.5" y2="55"/>
    <line x1="82.5" y1="65" x2="100.5" y2="55"/>
    <line x1="82.5" y1="125" x2="112.5" y2="158.8"/>
    <line x1="112.5" y1="158.8" x2="116.3" y2="201.3"/>
    <line x1="108.3" y1="201.3" x2="126.3" y2="201.3"/>
    <line x1="82.5" y1="125" x2="60.5" y2="163.8"/>
    <line x1="60.5" y1="163.8" x2="55" y2="201.3"/>
    <line x1="47" y1="201.3" x2="65" y2="201.3"/>
    <circle cx="112.5" cy="158.8" r="4" fill="#64748b" stroke="none"/>
    <circle cx="60.5" cy="163.8" r="4" fill="#64748b" stroke="none"/>
  </g>

  <g class="f3" stroke="#94a3b8" stroke-width="3" stroke-linecap="round" fill="none">
    <circle cx="85" cy="50" r="12" fill="#94a3b8" stroke="none"/>
    <line x1="85" y1="62" x2="85" y2="130"/>
    <rect x="65" y="48" width="40" height="14" rx="4" stroke="#64748b" fill="none"/>
    <line x1="85" y1="70" x2="67" y2="60"/>
    <line x1="85" y1="70" x2="103" y2="60"/>
    <line x1="85" y1="130" x2="115" y2="162.5"/>
    <line x1="115" y1="162.5" x2="117.5" y2="202.5"/>
    <line x1="109.5" y1="202.5" x2="127.5" y2="202.5"/>
    <line x1="85" y1="130" x2="61" y2="167.5"/>
    <line x1="61" y1="167.5" x2="55" y2="202.5"/>
    <line x1="47" y1="202.5" x2="65" y2="202.5"/>
    <circle cx="115" cy="162.5" r="4" fill="#64748b" stroke="none"/>
    <circle cx="61" cy="167.5" r="4" fill="#64748b" stroke="none"/>
  </g>

  <g class="f4" stroke="#94a3b8" stroke-width="3" stroke-linecap="round" fill="none">
    <circle cx="87.5" cy="55" r="12" fill="#94a3b8" stroke="none"/>
    <line x1="87.5" y1="67" x2="87.5" y2="135"/>
    <rect x="67.5" y="53" width="40" height="14" rx="4" stroke="#64748b" fill="none"/>
    <line x1="87.5" y1="75" x2="69.5" y2="65"/>
    <line x1="87.5" y1="75" x2="105.5" y2="65"/>
    <line x1="87.5" y1="135" x2="117.5" y2="166.3"/>
    <line x1="117.5" y1="166.3" x2="118.8" y2="203.8"/>
    <line x1="110.8" y1="203.8" x2="128.8" y2="203.8"/>
    <line x1="87.5" y1="135" x2="61.5" y2="171.3"/>
    <line x1="61.5" y1="171.3" x2="55" y2="203.8"/>
    <line x1="47" y1="203.8" x2="65" y2="203.8"/>
    <circle cx="117.5" cy="166.3" r="4" fill="#64748b" stroke="none"/>
    <circle cx="61.5" cy="171.3" r="4" fill="#64748b" stroke="none"/>
  </g>

  <g class="f5" stroke="#94a3b8" stroke-width="3" stroke-linecap="round" fill="none">
    <circle cx="90" cy="60" r="12" fill="#94a3b8" stroke="none"/>
    <line x1="90" y1="72" x2="90" y2="140"/>
    <rect x="70" y="58" width="40" height="14" rx="4" stroke="#64748b" fill="none"/>
    <line x1="90" y1="80" x2="72" y2="70"/>
    <line x1="90" y1="80" x2="108" y2="70"/>
    <line x1="90" y1="140" x2="120" y2="170"/>
    <line x1="120" y1="170" x2="120" y2="205"/>
    <line x1="112" y1="205" x2="130" y2="205"/>
    <line x1="90" y1="140" x2="62" y2="175"/>
    <line x1="62" y1="175" x2="55" y2="205"/>
    <line x1="47" y1="205" x2="65" y2="205"/>
    <circle cx="120" cy="170" r="4" fill="#64748b" stroke="none"/>
    <circle cx="62" cy="175" r="4" fill="#64748b" stroke="none"/>
  </g>

  <g class="f6" stroke="#94a3b8" stroke-width="3" stroke-linecap="round" fill="none">
    <circle cx="96.7" cy="55" r="12" fill="#94a3b8" stroke="none"/>
    <line x1="96.7" y1="67" x2="96.7" y2="135"/>
    <rect x="76.7" y="53" width="40" height="14" rx="4" stroke="#64748b" fill="none"/>
    <line x1="96.7" y1="75" x2="78.7" y2="65"/>
    <line x1="96.7" y1="75" x2="114.7" y2="65"/>
    <line x1="96.7" y1="135" x2="123.3" y2="170"/>
    <line x1="123.3" y1="170" x2="125" y2="205"/>
    <line x1="116.3" y1="205" x2="135" y2="205"/>
    <line x1="96.7" y1="135" x2="73" y2="173.3"/>
    <line x1="73" y1="173.3" x2="63.3" y2="201.7"/>
    <line x1="55.3" y1="201.7" x2="72.7" y2="201.7"/>
    <circle cx="123.3" cy="170" r="4" fill="#64748b" stroke="none"/>
    <circle cx="73" cy="173.3" r="4" fill="#64748b" stroke="none"/>
  </g>

  <g class="f7" stroke="#94a3b8" stroke-width="3" stroke-linecap="round" fill="none">
    <circle cx="103.3" cy="50" r="12" fill="#94a3b8" stroke="none"/>
    <line x1="103.3" y1="62" x2="103.3" y2="130"/>
    <rect x="83.3" y="48" width="40" height="14" rx="4" stroke="#64748b" fill="none"/>
    <line x1="103.3" y1="70" x2="85.3" y2="60"/>
    <line x1="103.3" y1="70" x2="121.3" y2="60"/>
    <line x1="103.3" y1="130" x2="126.7" y2="170"/>
    <line x1="126.7" y1="170" x2="130" y2="205"/>
    <line x1="120.7" y1="205" x2="140" y2="205"/>
    <line x1="103.3" y1="130" x2="84" y2="171.7"/>
    <line x1="84" y1="171.7" x2="71.7" y2="198.3"/>
    <line x1="63.7" y1="198.3" x2="80.3" y2="198.3"/>
    <circle cx="126.7" cy="170" r="4" fill="#64748b" stroke="none"/>
    <circle cx="84" cy="171.7" r="4" fill="#64748b" stroke="none"/>
  </g>

  <g class="f8" stroke="#94a3b8" stroke-width="3" stroke-linecap="round" fill="none">
    <circle cx="110" cy="45" r="12" fill="#94a3b8" stroke="none"/>
    <line x1="110" y1="57" x2="110" y2="125"/>
    <rect x="90" y="43" width="40" height="14" rx="4" stroke="#64748b" fill="none"/>
    <line x1="110" y1="65" x2="92" y2="55"/>
    <line x1="110" y1="65" x2="128" y2="55"/>
    <line x1="110" y1="125" x2="130" y2="170"/>
    <line x1="130" y1="170" x2="135" y2="205"/>
    <line x1="125" y1="205" x2="145" y2="205"/>
    <line x1="110" y1="125" x2="95" y2="170"/>
    <line x1="95" y1="170" x2="80" y2="195"/>
    <line x1="72" y1="195" x2="88" y2="195"/>
    <circle cx="130" cy="170" r="4" fill="#64748b" stroke="none"/>
    <circle cx="95" cy="170" r="4" fill="#64748b" stroke="none"/>
  </g>
</svg>
