<svg xmlns="http://www.w3.org/2000/svg" viewBox="0 0 200 230">
  <style>
    .f1{animation:sh1 8s linear infinite}.f2{animation:sh2 8s linear infinite}.f3{animation:sh3 8s linear infinite}.f4{animation:sh4 8s linear infinite}.f5{animation:sh5 8s linear infinite}.f6{animation:sh6 8s linear infinite}.f7{animation:sh7 8s linear infinite}.f8{animation:sh8 8s linear infinite}
    @keyframes sh1{0%,10.2%{opacity:1}12.5%,100%{opacity:0}}
    @keyframes sh2{0%,12.5%{opacity:0}14.8%,22.7%{opacity:1}25%,100%{opacity:0}}
    @keyframes sh3{0%,25%{opacity:0}27.3%,35.2%{opacity:1}37.5%,100%{opacity:0}}
    @keyframes sh4{0%,37.5%{opacity:0}39.8%,47.7%{opacity:1}50%,100%{opacity:0}}
    @keyframes sh5{0%,50%{opacity:0}52.3%,60.2%{opacity:1}62.5%,100%{opacity:0}}
    @keyframes sh6{0%,62.5%{opacity:0}64.8%,72.7%{opacity:1}75%,100%{opacity:0}}
    @keyframes sh7{0%,75%{opacity:0}77.3%,85.2%{opacity:1}87.5%,100%{opacity:0}}
    @keyframes sh8{0%,87.5%{opacity:0}89.8%,97.7%{opacity:1}100%{opacity:0}}
  </style>
  <rect width="200" height="230" fill="#111827" rx="12"/>
  <line x1="16" y1="192" x2="184" y2="192" stroke="#374151" stroke-width="3" stroke-linecap="round"/>
  <text x="100" y="226" text-anchor="middle" font-family="ui-sans-serif,system-ui,sans-serif" font-size="9" font-weight="700" fill="#475569" letter-spacing="2">FIGURE-4 STRETCH</text>

  <!-- Frame 1: boca arriba, rodillas flexionadas -->
  <g class="f1" stroke="#94a3b8" stroke-width="5" stroke-linecap="round" stroke-linejoin="round" fill="none">
    <circle cx="32" cy="172" r="12" fill="#94a3b8" stroke="none"/>
    <line x1="46" y1="180" x2="112" y2="182"/>
    <polyline points="112,182 148,148 156,190"/>
    <polyline points="112,182 142,156 150,190"/>
    <circle cx="148" cy="148" r="4" fill="#64748b" stroke="none"/>
  </g>
<g class="f2" stroke="#94a3b8" stroke-width="5" stroke-linecap="round" stroke-linejoin="round" fill="none">
    <circle cx="32" cy="172" r="12" fill="#94a3b8" stroke="none"/>
    <line x1="46" y1="180" x2="112" y2="182"/>
    <polyline points="112,182 148,148 156,190"/>
    <polyline points="112,181 137.5,151 155,178"/>
    <circle cx="148" cy="148" r="4" fill="#64748b" stroke="none"/>
  </g>
<g class="f3" stroke="#94a3b8" stroke-width="5" stroke-linecap="round" stroke-linejoin="round" fill="none">
    <circle cx="32" cy="172" r="12" fill="#94a3b8" stroke="none"/>
    <line x1="46" y1="180" x2="112" y2="182"/>
    <polyline points="112,182 148,148 156,190"/>
    <polyline points="112,180 133,146 160,166"/>
    <circle cx="148" cy="148" r="4" fill="#64748b" stroke="none"/>
    <circle cx="124" cy="136" r="4" fill="#64748b" stroke="none"/>
  </g>
<g class="f4" stroke="#94a3b8" stroke-width="5" stroke-linecap="round" stroke-linejoin="round" fill="none">
    <circle cx="32" cy="172" r="12" fill="#94a3b8" stroke="none"/>
    <line x1="46" y1="180" x2="112" y2="182"/>
    <polyline points="112,182 148,148 156,190"/>
    <polyline points="112,179 128.5,141 165,154"/>
    <circle cx="148" cy="148" r="4" fill="#64748b" stroke="none"/>
    <circle cx="124" cy="136" r="4" fill="#64748b" stroke="none"/>
  </g>
<g class="f5" stroke="#94a3b8" stroke-width="5" stroke-linecap="round" stroke-linejoin="round" fill="none">
    <circle cx="32" cy="172" r="12" fill="#94a3b8" stroke="none"/>
    <line x1="46" y1="180" x2="112" y2="182"/>
    <polyline points="112,182 148,148 156,190"/>
    <polyline points="112,178 124,136 170,142"/>
    <circle cx="148" cy="148" r="4" fill="#64748b" stroke="none"/>
    <circle cx="124" cy="136" r="4" fill="#64748b" stroke="none"/>
  </g>
<g class="f6" stroke="#94a3b8" stroke-width="5" stroke-linecap="round" stroke-linejoin="round" fill="none">
    <circle cx="32" cy="172" r="12" fill="#94a3b8" stroke="none"/>
    <line x1="46" y1="180" x2="112" y2="182"/>
    <polyline points="112,182 137.3,140 153.3,178.7"/>
    <polyline points="112,178 112.7,129.3 159.3,128.7"/>
    <circle cx="137.3" cy="140" r="4" fill="#64748b" stroke="none"/>
    <circle cx="112.7" cy="129.3" r="4" fill="#64748b" stroke="none"/>
  </g>
<g class="f7" stroke="#94a3b8" stroke-width="5" stroke-linecap="round" stroke-linejoin="round" fill="none">
    <circle cx="32" cy="172" r="12" fill="#94a3b8" stroke="none"/>
    <line x1="46" y1="180" x2="112" y2="182"/>
    <polyline points="112,182 126.7,132 150.7,167.3"/>
    <polyline points="112,178 101.3,122.7 148.7,115.3"/>
    <line x1="52" y1="176" x2="106" y2="132"/>
    <circle cx="126.7" cy="132" r="4" fill="#64748b" stroke="none"/>
    <circle cx="101.3" cy="122.7" r="4" fill="#64748b" stroke="none"/>
    <circle cx="150" cy="86" r="3" fill="#6ee7b7" stroke="none"/>
    <circle cx="160" cy="94" r="3" fill="#6ee7b7" stroke="none"/>
    <circle cx="168" cy="104" r="3" fill="#6ee7b7" stroke="none"/>
  </g>
<g class="f8" stroke="#94a3b8" stroke-width="5" stroke-linecap="round" stroke-linejoin="round" fill="none">
    <circle cx="32" cy="172" r="12" fill="#94a3b8" stroke="none"/>
    <line x1="46" y1="180" x2="112" y2="182"/>
    <polyline points="112,182 116,124 148,156"/>
    <polyline points="112,178 90,116 138,102"/>
    <line x1="52" y1="176" x2="106" y2="132"/>
    <circle cx="116" cy="124" r="4" fill="#64748b" stroke="none"/>
    <circle cx="90" cy="116" r="4" fill="#64748b" stroke="none"/>
    <circle cx="150" cy="86" r="3" fill="#6ee7b7" stroke="none"/>
    <circle cx="160" cy="94" r="3" fill="#6ee7b7" stroke="none"/>
    <circle cx="168" cy="104" r="3" fill="#6ee7b7" stroke="none"/>
  </g>
</svg>
